<svg xmlns="http://www.w3.org/2000/svg" width="21.162" height="16.698" viewBox="0 0 21.162 16.698">
  <path id="_001-mail_inbox_app" data-name="001-mail inbox app" d="M16.2,70.7H4.96A4.965,4.965,0,0,1,0,65.738V58.96A4.965,4.965,0,0,1,4.96,54H16.2a4.965,4.965,0,0,1,4.96,4.96v6.778A4.965,4.965,0,0,1,16.2,70.7ZM4.96,55.653A3.31,3.31,0,0,0,1.653,58.96v6.778A3.31,3.31,0,0,0,4.96,69.045H16.2a3.31,3.31,0,0,0,3.307-3.307V58.96A3.31,3.31,0,0,0,16.2,55.653Zm8.65,8.159L17.7,60.691a.827.827,0,0,0-1-1.314L12.607,62.5a3.315,3.315,0,0,1-4.008,0L4.641,59.423a.827.827,0,0,0-1.015,1.305l3.962,3.08.006,0a4.972,4.972,0,0,0,6.016,0Z" transform="translate(0 -54)" fill="#3e3e3e"/>
</svg>
