<svg xmlns="http://www.w3.org/2000/svg" width="21.162" height="21.16" viewBox="0 0 21.162 21.16">
  <path id="_002-speech_bubble" data-name="002-speech bubble" d="M.826,21.183A.827.827,0,0,1,0,20.357V10.7a10.585,10.585,0,1,1,10.53,10.48,10.452,10.452,0,0,1-4.726-1.11,3.662,3.662,0,0,0-4.232.707l-.162.162a.826.826,0,0,1-.585.242Zm3.359-3.147a5.26,5.26,0,0,1,2.361.559,8.816,8.816,0,0,0,3.994.935,8.932,8.932,0,1,0-8.887-8.839s0,.005,0,.008v7.979a5.326,5.326,0,0,1,2.532-.642ZM8.1,10.6A1.033,1.033,0,1,1,7.067,9.57,1.033,1.033,0,0,1,8.1,10.6ZM10.621,9.57A1.033,1.033,0,1,0,11.654,10.6,1.033,1.033,0,0,0,10.621,9.57Zm3.554,0A1.033,1.033,0,1,0,15.209,10.6,1.033,1.033,0,0,0,14.175,9.57Z" transform="translate(0 -0.023)" fill="#3e3e3e"/>
</svg>
