<svg xmlns="http://www.w3.org/2000/svg" width="21.162" height="21.121" viewBox="0 0 21.162 21.121">
  <path id="_008-maps" data-name="008-maps" d="M12.21,21.621H4.95A4.956,4.956,0,0,1,0,16.671V5.45A4.956,4.956,0,0,1,4.95.5h11.22a4.956,4.956,0,0,1,4.95,4.95V9.617a.825.825,0,0,1-1.65,0V5.45a3.3,3.3,0,0,0-3.3-3.3H4.95a3.3,3.3,0,0,0-3.3,3.3v11.22a3.3,3.3,0,0,0,3.3,3.3h7.26A.825.825,0,0,1,12.21,21.621ZM11.187,7.764l2.556-2.556a.825.825,0,0,0-1.167-1.167L10.02,6.6a.825.825,0,0,1-1.169,0L6.32,4.044A.825.825,0,0,0,5.148,5.206L7.68,7.757a2.458,2.458,0,0,0,1.752.732h0A2.459,2.459,0,0,0,11.187,7.764ZM4.754,14.2l1.772-1.8A2.483,2.483,0,0,0,6.52,8.918L4.752,7.138A.825.825,0,0,0,3.581,8.3l1.768,1.781a.828.828,0,0,1,0,1.161l-1.772,1.8A.825.825,0,1,0,4.754,14.2Zm13.717,6.587c1.785-2.266,2.691-4,2.691-5.139a4.414,4.414,0,1,0-8.828,0c0,1.143.905,2.872,2.691,5.139a2.194,2.194,0,0,0,3.446,0Zm-.648-.511h0Zm1.689-4.628c0,.557-.614,1.93-2.337,4.118a.541.541,0,0,1-.854,0c-1.723-2.187-2.337-3.561-2.337-4.118a2.764,2.764,0,1,1,5.528,0ZM4.991,18.321a.827.827,0,0,1-.583-1.408l12-12a.825.825,0,0,1,1.167,1.167l-12,12A.823.823,0,0,1,4.991,18.321Zm10.725-2.764a1.031,1.031,0,1,0,1.031-1.031A1.031,1.031,0,0,0,15.717,15.557Z" transform="translate(0 -0.5)" fill="#3e3e3e"/>
</svg>
