<svg id="Add_Menu" data-name="Add Menu" xmlns="http://www.w3.org/2000/svg" width="65.751" height="65.751" viewBox="0 0 65.751 65.751">
  <path id="Path_156" data-name="Path 156" d="M15.068,30.136C2.659,30.136,0,27.477,0,15.068S2.659,0,15.068,0,30.136,2.659,30.136,15.068,27.477,30.136,15.068,30.136Zm-9.11-8.667a31.075,31.075,0,0,1-.479-6.4,31.075,31.075,0,0,1,.479-6.4,3.772,3.772,0,0,1,.8-1.912,3.772,3.772,0,0,1,1.912-.8,31.074,31.074,0,0,1,6.4-.479,31.075,31.075,0,0,1,6.4.479,3.772,3.772,0,0,1,1.912.8,3.772,3.772,0,0,1,.8,1.912,31.074,31.074,0,0,1,.479,6.4,31.074,31.074,0,0,1-.479,6.4,3.772,3.772,0,0,1-.8,1.912,3.772,3.772,0,0,1-1.912.8,31.074,31.074,0,0,1-6.4.479,31.074,31.074,0,0,1-6.4-.479,3.772,3.772,0,0,1-1.912-.8A3.772,3.772,0,0,1,5.958,21.468Z" transform="translate(0 0)" fill="#137cb6" fill-rule="evenodd"/>
  <path id="Path_157" data-name="Path 157" d="M15.068,43.136C2.659,43.136,0,40.476,0,28.068S2.659,13,15.068,13s15.068,2.659,15.068,15.068S27.477,43.136,15.068,43.136Zm-9.11-8.667a31.076,31.076,0,0,1-.479-6.4,31.076,31.076,0,0,1,.479-6.4,3.774,3.774,0,0,1,.8-1.912,3.772,3.772,0,0,1,1.912-.8,31.071,31.071,0,0,1,6.4-.479,31.072,31.072,0,0,1,6.4.479,3.772,3.772,0,0,1,1.912.8,3.774,3.774,0,0,1,.8,1.912,31.075,31.075,0,0,1,.479,6.4,31.076,31.076,0,0,1-.479,6.4,3.774,3.774,0,0,1-.8,1.912,3.772,3.772,0,0,1-1.912.8,31.072,31.072,0,0,1-6.4.479,31.071,31.071,0,0,1-6.4-.479,3.772,3.772,0,0,1-1.912-.8A3.774,3.774,0,0,1,5.958,34.469Z" transform="translate(0 22.615)" fill="#137cb6" fill-rule="evenodd"/>
  <path id="Path_158" data-name="Path 158" d="M13,28.068c0,12.408,2.659,15.068,15.068,15.068s15.068-2.66,15.068-15.068S40.477,13,28.068,13,13,15.659,13,28.068Zm5.479,0a31.073,31.073,0,0,0,.479,6.4,3.774,3.774,0,0,0,.8,1.912,3.774,3.774,0,0,0,1.912.8,31.072,31.072,0,0,0,6.4.479,31.073,31.073,0,0,0,6.4-.479,3.774,3.774,0,0,0,1.912-.8,3.774,3.774,0,0,0,.8-1.912,31.073,31.073,0,0,0,.479-6.4,31.072,31.072,0,0,0-.479-6.4,3.774,3.774,0,0,0-.8-1.912,3.774,3.774,0,0,0-1.912-.8,31.073,31.073,0,0,0-6.4-.479,31.073,31.073,0,0,0-6.4.479,3.774,3.774,0,0,0-1.912.8,3.774,3.774,0,0,0-.8,1.912A31.073,31.073,0,0,0,18.479,28.068Z" transform="translate(22.615 22.615)" fill="#137cb6" fill-rule="evenodd"/>
  <path id="Path_159" data-name="Path 159" d="M29.068,3.74a2.74,2.74,0,0,0-5.479,0v6.849H16.74a2.74,2.74,0,1,0,0,5.479h6.849v6.849a2.74,2.74,0,0,0,5.479,0V16.068h6.849a2.74,2.74,0,1,0,0-5.479H29.068Z" transform="translate(24.355 1.74)" fill="#c6ecff"/>
</svg>
