<svg id="add-text" xmlns="http://www.w3.org/2000/svg" width="24.001" height="24.001" viewBox="0 0 24.001 24.001">
  <path id="Path_347" data-name="Path 347" d="M6.243.469A27.313,27.313,0,0,1,12,0a27.314,27.314,0,0,1,5.758.469A7.562,7.562,0,0,1,21.6,2.4a7.562,7.562,0,0,1,1.927,3.847A27.317,27.317,0,0,1,24,12a27.318,27.318,0,0,1-.469,5.758A7.562,7.562,0,0,1,21.6,21.6a7.562,7.562,0,0,1-3.847,1.927A27.318,27.318,0,0,1,12,24a27.317,27.317,0,0,1-5.757-.469A7.562,7.562,0,0,1,2.4,21.6,7.562,7.562,0,0,1,.469,17.758,27.314,27.314,0,0,1,0,12,27.313,27.313,0,0,1,.469,6.243,7.562,7.562,0,0,1,2.4,2.4,7.562,7.562,0,0,1,6.243.469ZM2.421,6.677A25.438,25.438,0,0,0,2,12a25.439,25.439,0,0,0,.421,5.324A5.6,5.6,0,0,0,3.81,20.191,5.6,5.6,0,0,0,6.677,21.58,25.434,25.434,0,0,0,12,22a25.435,25.435,0,0,0,5.324-.421,5.6,5.6,0,0,0,2.867-1.389,5.6,5.6,0,0,0,1.389-2.867A25.435,25.435,0,0,0,22,12a25.434,25.434,0,0,0-.421-5.324A5.6,5.6,0,0,0,20.191,3.81a5.6,5.6,0,0,0-2.867-1.389A25.439,25.439,0,0,0,12,2a25.438,25.438,0,0,0-5.324.421A5.6,5.6,0,0,0,3.81,3.81,5.6,5.6,0,0,0,2.421,6.677Z" fill="#a9b0a6" fill-rule="evenodd"/>
  <path id="Path_348" data-name="Path 348" d="M12.11,6.569a1.847,1.847,0,0,1,2.575-.089L17.41,8.962a1.8,1.8,0,0,1,.091,2.576L11.89,17.422a1.843,1.843,0,0,1-1.327.569L8.009,18A1.824,1.824,0,0,1,6.173,16.31L6,13.818a1.8,1.8,0,0,1,.5-1.365Zm1.333,1.277-.832.872,2.7,2.442.823-.863L13.444,7.846Zm.592,4.651-2.7-2.442L7.848,13.714l.166,2.44,2.544-.009Z" transform="translate(0 0)" fill="#212e47" fill-rule="evenodd"/>
</svg>
