<svg id="Add" xmlns="http://www.w3.org/2000/svg" width="24" height="24" viewBox="0 0 24 24">
  <path id="Path_809" data-name="Path 809" d="M1,12a27.833,27.833,0,0,0,.462,5.827A6.193,6.193,0,0,0,3,21a6.193,6.193,0,0,0,3.172,1.54A27.838,27.838,0,0,0,12,23a27.838,27.838,0,0,0,5.827-.462A6.193,6.193,0,0,0,21,21a6.193,6.193,0,0,0,1.54-3.172A27.838,27.838,0,0,0,23,12a27.838,27.838,0,0,0-.462-5.827A6.193,6.193,0,0,0,21,3a6.193,6.193,0,0,0-3.172-1.54A27.833,27.833,0,0,0,12,1a27.833,27.833,0,0,0-5.827.462A6.193,6.193,0,0,0,3,3a6.193,6.193,0,0,0-1.54,3.172A27.833,27.833,0,0,0,1,12Z" fill="none" stroke="#212135" stroke-linecap="round" stroke-linejoin="round" stroke-width="2"/>
  <path id="Path_810" data-name="Path 810" d="M12,8v4m0,4V12m0,0H8" fill="none" stroke="#212135" stroke-linecap="round" stroke-linejoin="round" stroke-width="2"/>
</svg>
