<svg xmlns="http://www.w3.org/2000/svg" width="14.326" height="17.086" viewBox="0 0 14.326 17.086">
  <g id="Bookmark" transform="translate(1 1)">
    <path id="Path_835" data-name="Path 835" d="M3.213,15.826h0l-.007,0a1.265,1.265,0,0,1-2-.941C1.121,13.721,1,11.579,1,8.464V8.408H1c0-1.236,0-2.314.089-3.213A5.283,5.283,0,0,1,1.795,2.8C2.7,1.413,4.432,1.011,7.16,1s4.469.388,5.372,1.787a5.329,5.329,0,0,1,.705,2.4c.088.9.089,1.982.089,3.219v.056c0,3.115-.121,5.257-.211,6.426a1.265,1.265,0,0,1-1.995.941h0l-.007,0c-.707-.483-1.361-1-1.87-1.41l-.009-.007c-.232-.184-.442-.352-.607-.474a3.743,3.743,0,0,0-.807-.482,1.755,1.755,0,0,0-1.313,0,3.744,3.744,0,0,0-.807.482h0c-.165.122-.375.29-.607.474l-.009.007C4.574,14.822,3.92,15.343,3.213,15.826Z" transform="translate(-1 -1)" fill="none" stroke="#053742" stroke-linecap="round" stroke-linejoin="round" stroke-width="2"/>
    <path id="Path_836" data-name="Path 836" d="M12,5a1.727,1.727,0,0,1,1.541.51c.514.512.514,2.227.514,2.911" transform="translate(-4.468 -2.262)" fill="none" stroke="#053742" stroke-linecap="round" stroke-linejoin="round" stroke-width="2"/>
  </g>
</svg>
