<svg xmlns="http://www.w3.org/2000/svg" width="29.216" height="29.216" viewBox="0 0 29.216 29.216">
  <g id="Calling-header" transform="translate(0)">
    <path id="Path_848" data-name="Path 848" d="M20.3,12.3A7.032,7.032,0,0,0,13,5" transform="translate(2.825 1.087)" fill="none" stroke="#137cb6" stroke-linecap="round" stroke-linejoin="round" stroke-width="2"/>
    <path id="Path_849" data-name="Path 849" d="M25.174,13.173C25.174,5.869,20.3,1,13,1" transform="translate(2.825 0.217)" fill="none" stroke="#137cb6" stroke-linecap="round" stroke-linejoin="round" stroke-width="2"/>
    <path id="Path_850" data-name="Path 850" d="M2.857,1.691A6.054,6.054,0,0,1,6.714,0h.045l.045,0a3.894,3.894,0,0,1,2.275,1.15l0,0a25.093,25.093,0,0,1,1.939,2.272c.351.457.694.931.965,1.355.135.212.262.425.365.627a2.843,2.843,0,0,1,.259.689,4.092,4.092,0,0,1-.655,2.984l-.039.067-.028.049c-.1.171-.225.361-.334.526l-.012.018a7.886,7.886,0,0,0-.558.928,1.613,1.613,0,0,0-.074.181,14.548,14.548,0,0,0,1.9,3.2,21.786,21.786,0,0,0,3.151,3.056,12.982,12.982,0,0,0,2.315,1.313,1.63,1.63,0,0,0,.218-.085,8.09,8.09,0,0,0,.955-.567l.016-.011c.154-.1.329-.215.485-.306l.009,0,.05-.028.065-.036a4.172,4.172,0,0,1,3.006-.651h0a2.886,2.886,0,0,1,.683.252c.2.1.413.223.625.355.424.265.9.6,1.359.941a24.146,24.146,0,0,1,2.289,1.9l0,0,.008.008,0,0a3.7,3.7,0,0,1,1.174,2.327l0,.022v.022a5.8,5.8,0,0,1-1.644,3.772,11.084,11.084,0,0,1-2.138,1.933c-.118.075.082-.059,0,0-1.852,1.325-4.169,1.162-6.544.093-.056-.025.048.02,0,0a31.066,31.066,0,0,1-8.211-5.6c-.98-.878-2.868-2.728-3.463-3.409l.012.013L7.2,19.341l.013.015A34.717,34.717,0,0,1,.871,10.294c-.026-.061.024.051,0,0A8.3,8.3,0,0,1,0,6.8,5.151,5.151,0,0,1,.936,3.784L.9,3.847.967,3.74l-.031.043a7.116,7.116,0,0,1,.676-.869A12.6,12.6,0,0,1,2.857,1.691ZM18.212,18.447h0ZM10.893,10.93v0ZM3.013,5.054l0,0-.032.055-.037.052A2.716,2.716,0,0,0,2.435,6.8a5.922,5.922,0,0,0,.649,2.478L3.1,9.3l.01.024a32.383,32.383,0,0,0,5.91,8.391l.013.014.012.014c.482.556,2.305,2.35,3.261,3.206a28.716,28.716,0,0,0,7.523,5.167l.023.009.022.01c2,.9,3.3.769,4.168.139l.043-.031.045-.027a8.769,8.769,0,0,0,1.6-1.467,3.61,3.61,0,0,0,1.058-2.059,1.359,1.359,0,0,0-.463-.771l-.008-.008a22.189,22.189,0,0,0-2.018-1.669c-.429-.32-.846-.611-1.192-.827-.173-.108-.316-.189-.424-.243-.067-.033-.1-.048-.115-.052-.386-.074-.7.062-1.359.431l-.033.019c-.094.055-.214.134-.386.246l-.028.018a10.025,10.025,0,0,1-1.24.722,2.623,2.623,0,0,1-1.97.208l-.026-.009-.025-.01a15.3,15.3,0,0,1-2.935-1.635,23.926,23.926,0,0,1-3.63-3.5l-.014-.017-.014-.018a16.876,16.876,0,0,1-2.309-3.949l-.007-.016-.006-.016a2.54,2.54,0,0,1,.2-1.944,9.815,9.815,0,0,1,.714-1.212l.019-.028c.124-.188.21-.318.268-.418L9.8,7.951c.376-.66.5-.962.432-1.319,0-.011-.019-.047-.051-.111-.055-.107-.136-.248-.247-.421-.22-.344-.518-.758-.845-1.185A23.193,23.193,0,0,0,7.385,2.907a1.568,1.568,0,0,0-.8-.473,3.935,3.935,0,0,0-2.15,1.109,10.17,10.17,0,0,0-1,.983c-.131.148-.237.277-.315.378S3.022,5.041,3.013,5.054Z" transform="translate(0 0)" fill="#c6ecff" fill-rule="evenodd"/>
  </g>
</svg>
