<svg id="Credit_Card" data-name="Credit Card" xmlns="http://www.w3.org/2000/svg" width="62.559" height="62.559" viewBox="0 0 62.559 62.559">
  <path id="Path_300" data-name="Path 300" d="M0,31.279C0,57.038,5.521,62.559,31.279,62.559s31.279-5.521,31.279-31.279S57.038,0,31.279,0,0,5.521,0,31.279Zm5.213,0A70.133,70.133,0,0,0,6.354,45.9c.782,3.52,1.929,5.606,3.312,6.989s3.469,2.53,6.99,3.312a70.127,70.127,0,0,0,14.623,1.141A70.128,70.128,0,0,0,45.9,56.2c3.52-.782,5.606-1.929,6.989-3.312s2.53-3.469,3.312-6.989a70.128,70.128,0,0,0,1.141-14.623c0-1.874-.03-3.608-.094-5.213H5.307C5.244,27.671,5.213,29.405,5.213,31.279ZM6.6,15.64H55.958a12.641,12.641,0,0,0-3.066-5.973c-1.383-1.384-3.469-2.53-6.989-3.312A70.133,70.133,0,0,0,31.279,5.213,70.132,70.132,0,0,0,16.656,6.354c-3.52.782-5.606,1.929-6.99,3.312A12.642,12.642,0,0,0,6.6,15.64Z" fill="#a9b0a6" fill-rule="evenodd"/>
  <rect id="Rectangle_157" data-name="Rectangle 157" width="15.326" height="6.131" rx="1" transform="translate(49.291 49.045) rotate(180)" fill="#212e47"/>
</svg>
