<svg xmlns="http://www.w3.org/2000/svg" width="18.069" height="15.058" viewBox="0 0 18.069 15.058">
  <path id="Dish" d="M9.787,2.259a.753.753,0,1,1-.753-.753A.753.753,0,0,1,9.787,2.259Zm1.307.928a2.259,2.259,0,1,0-4.119,0A6.258,6.258,0,0,0,3.4,5.042C2.087,6.464,1.506,8.57,1.506,11.293q0,.019,0,.037a1.882,1.882,0,0,0,.376,3.727h14.3a1.882,1.882,0,0,0,.376-3.727q0-.019,0-.037c0-2.723-.581-4.829-1.894-6.251A6.258,6.258,0,0,0,11.094,3.187Zm-2.06,1.33c-2.142,0-3.595.534-4.529,1.546s-1.494,2.683-1.494,5.23H15.058c0-2.547-.548-4.205-1.494-5.23S11.177,4.517,9.035,4.517ZM16.187,12.8a.376.376,0,0,1,0,.753H1.882a.376.376,0,1,1,0-.753Z" fill="#646564" fill-rule="evenodd"/>
</svg>
