<svg xmlns="http://www.w3.org/2000/svg" width="17.401" height="17.401" viewBox="0 0 17.401 17.401">
  <g id="Document_Align_Center_1" data-name="Document Align Center 1" transform="translate(1 1)">
    <path id="Path_895" data-name="Path 895" d="M1,8.7a19.485,19.485,0,0,0,.323,4.079A4.335,4.335,0,0,0,2.4,15a4.336,4.336,0,0,0,2.22,1.078A19.488,19.488,0,0,0,8.7,16.4a19.488,19.488,0,0,0,4.079-.323A4.335,4.335,0,0,0,15,15a4.335,4.335,0,0,0,1.078-2.22A19.488,19.488,0,0,0,16.4,8.7a19.488,19.488,0,0,0-.323-4.079A4.336,4.336,0,0,0,15,2.4a4.335,4.335,0,0,0-2.22-1.078A19.485,19.485,0,0,0,8.7,1a19.485,19.485,0,0,0-4.079.323A4.335,4.335,0,0,0,2.4,2.4a4.335,4.335,0,0,0-1.078,2.22A19.485,19.485,0,0,0,1,8.7Z" transform="translate(-1 -1)" fill="none" stroke="#646564" stroke-linecap="round" stroke-linejoin="round" stroke-width="2"/>
    <path id="Path_896" data-name="Path 896" d="M10,7h2.8" transform="translate(-3.699 -2.8)" fill="none" stroke="#646564" stroke-linecap="round" stroke-linejoin="round" stroke-width="2"/>
    <path id="Path_897" data-name="Path 897" d="M7,12h7" transform="translate(-2.8 -4.299)" fill="none" stroke="#646564" stroke-linecap="round" stroke-linejoin="round" stroke-width="2"/>
    <path id="Path_898" data-name="Path 898" d="M10,17h2.8" transform="translate(-3.699 -5.799)" fill="none" stroke="#646564" stroke-linecap="round" stroke-linejoin="round" stroke-width="2"/>
  </g>
</svg>
