<svg xmlns="http://www.w3.org/2000/svg" width="49.812" height="49.812" viewBox="0 0 49.812 49.812">
  <g id="Document-align-2" transform="translate(0.5 0.5)">
    <path id="Path_902" data-name="Path 902" d="M24.406,47.812a59.235,59.235,0,0,1-12.4-.982,13.178,13.178,0,0,1-6.749-3.277A13.176,13.176,0,0,1,1.982,36.8,59.224,59.224,0,0,1,1,24.406a59.224,59.224,0,0,1,.982-12.4A13.177,13.177,0,0,1,5.259,5.259a13.177,13.177,0,0,1,6.749-3.276A59.224,59.224,0,0,1,24.406,1a59.224,59.224,0,0,1,12.4.982,13.176,13.176,0,0,1,6.749,3.276,13.178,13.178,0,0,1,3.277,6.749,59.235,59.235,0,0,1,.982,12.4,59.234,59.234,0,0,1-.982,12.4,13.177,13.177,0,0,1-3.277,6.749A13.177,13.177,0,0,1,36.8,46.83,59.234,59.234,0,0,1,24.406,47.812Z" fill="none" stroke="#ff4241" stroke-linecap="round" stroke-linejoin="round" stroke-width="3"/>
    <path id="Path_903" data-name="Path 903" d="M7,7h6.383" transform="translate(6.767 6.767)" fill="none" stroke="#ff4241" stroke-linecap="round" stroke-linejoin="round" stroke-width="3"/>
    <path id="Path_904" data-name="Path 904" d="M7,12H28.278" transform="translate(6.767 12.406)" fill="none" stroke="#ff4241" stroke-linecap="round" stroke-linejoin="round" stroke-width="3"/>
    <path id="Path_905" data-name="Path 905" d="M14,17h6.383" transform="translate(14.662 18.045)" fill="none" stroke="#ff4241" stroke-linecap="round" stroke-linejoin="round" stroke-width="3"/>
  </g>
</svg>
