<svg id="Download" xmlns="http://www.w3.org/2000/svg" width="29" height="28.411" viewBox="0 0 29 28.411">
  <path id="Path_920" data-name="Path 920" d="M18.5,23.5l-4,3.5m0,0-4-3.5m4,3.5V17" fill="none" stroke="#fff" stroke-linecap="round" stroke-linejoin="round" stroke-width="2"/>
  <path id="Path_921" data-name="Path 921" d="M8.732,8a8.2,8.2,0,0,0-.4,2,4.509,4.509,0,0,0,.4,2" fill="none" stroke="#fff" stroke-linecap="round" stroke-linejoin="round" stroke-width="2"/>
  <path id="Path_922" data-name="Path 922" d="M18,0A10.71,10.71,0,0,0,8.232,6.354a.529.529,0,0,1-.482.307A7.848,7.848,0,0,0,0,14.488,7.723,7.723,0,0,0,7,21.94.913.913,0,0,0,8,21a1.135,1.135,0,0,0-1-1.078,5.711,5.711,0,0,1-5-5.434A5.849,5.849,0,0,1,7.75,8.661a5.884,5.884,0,0,1,.86.063A1,1,0,0,0,9.7,8.058,8.763,8.763,0,0,1,18,2a9.035,9.035,0,0,1,9,8.991,9.132,9.132,0,0,1-5.325,8.231l-.109.05a.939.939,0,0,0-.566.88c0,.01,0,.031,0,.073,0,.022,0-.033,0-.015a1.048,1.048,0,0,0,1.361.9l-.07.031A11.141,11.141,0,0,0,29,10.991,11.035,11.035,0,0,0,18,0Zm.23,22h0Z" fill="#fff" fill-rule="evenodd"/>
</svg>
