<svg id="FAQ" xmlns="http://www.w3.org/2000/svg" width="29" height="29" viewBox="0 0 29 29">
  <path id="Path_931" data-name="Path 931" d="M12.682,6A3.6,3.6,0,0,0,9.924,7.179,3.768,3.768,0,0,0,9,9.682a5.039,5.039,0,0,0,1.487,3.293l.031.037c.692.817.937,1.162.937,1.579a1.227,1.227,0,0,0,2.455,0A4.719,4.719,0,0,0,12.5,11.549l-.105-.123c-.643-.759-.937-1.19-.937-1.744a1.318,1.318,0,0,1,.3-.872,1.156,1.156,0,0,1,.924-.355,1.156,1.156,0,0,1,.924.355,1.318,1.318,0,0,1,.3.872,1.227,1.227,0,1,0,2.455,0,3.768,3.768,0,0,0-.924-2.5A3.6,3.6,0,0,0,12.682,6Zm0,11.045a1.227,1.227,0,1,0,1.227,1.227A1.227,1.227,0,0,0,12.682,17.045Z" transform="translate(1.818 1.136)" fill="#646564" fill-rule="evenodd"/>
  <path id="Path_932" data-name="Path 932" d="M1,14.5a34.159,34.159,0,0,0,.566,7.151,7.6,7.6,0,0,0,1.89,3.892,7.6,7.6,0,0,0,3.892,1.89A34.165,34.165,0,0,0,14.5,28a34.165,34.165,0,0,0,7.151-.566,7.6,7.6,0,0,0,3.892-1.89,7.6,7.6,0,0,0,1.89-3.892A34.165,34.165,0,0,0,28,14.5a34.165,34.165,0,0,0-.566-7.151,7.6,7.6,0,0,0-1.89-3.892,7.6,7.6,0,0,0-3.892-1.89A34.159,34.159,0,0,0,14.5,1a34.159,34.159,0,0,0-7.151.566,7.6,7.6,0,0,0-3.892,1.89,7.6,7.6,0,0,0-1.89,3.892A34.159,34.159,0,0,0,1,14.5Z" fill="none" stroke="#646564" stroke-linecap="round" stroke-linejoin="round" stroke-width="2"/>
</svg>
