<svg id="Headphone" xmlns="http://www.w3.org/2000/svg" width="72" height="66" viewBox="0 0 72 66">
  <path id="Path_420" data-name="Path 420" d="M9,24a3,3,0,1,1-6,0c0-7.641,2.435-13.811,7.335-18.013C15.158,1.852,21.936,0,29.9,0S44.678,1.829,49.549,5.944C54.5,10.13,57,16.3,57,24a3,3,0,1,1-6,0c0-6.343-2-10.669-5.324-13.473C42.273,7.652,37.042,6,29.9,6s-12.308,1.668-15.66,4.542C10.966,13.35,9,17.679,9,24Z" transform="translate(6 0)" fill="#c6ecff"/>
  <path id="Path_421" data-name="Path 421" d="M9,19a3,3,0,1,0-6,0A15,15,0,0,0,18,34h3a3,3,0,1,0,0-6H18A9,9,0,0,1,9,19Z" transform="translate(6 32)" fill="#c6ecff"/>
  <path id="Path_422" data-name="Path 422" d="M0,22C0,34.353,2.383,37,13.5,37S27,34.353,27,22,24.617,7,13.5,7,0,9.648,0,22Zm6,0a34.339,34.339,0,0,0,.429,6.378,3.885,3.885,0,0,0,.611,1.74c.03.034.786.882,6.459.882s6.429-.848,6.459-.881a3.888,3.888,0,0,0,.612-1.741A34.339,34.339,0,0,0,21,22a34.336,34.336,0,0,0-.429-6.378,3.887,3.887,0,0,0-.611-1.74c-.03-.034-.786-.882-6.459-.882s-6.429.847-6.459.881a3.888,3.888,0,0,0-.612,1.741A34.336,34.336,0,0,0,6,22Z" transform="translate(0 14)" fill="#137cb6" fill-rule="evenodd"/>
  <path id="Path_423" data-name="Path 423" d="M15,22c0,12.353,2.383,15,13.5,15S42,34.353,42,22,39.617,7,28.5,7,15,9.648,15,22Zm6,0a34.339,34.339,0,0,0,.43,6.378,3.889,3.889,0,0,0,.611,1.74c.03.034.787.882,6.459.882s6.429-.848,6.459-.881a3.886,3.886,0,0,0,.612-1.741A34.339,34.339,0,0,0,36,22a34.336,34.336,0,0,0-.43-6.378,3.891,3.891,0,0,0-.611-1.74c-.03-.034-.787-.882-6.459-.882s-6.429.848-6.459.881a3.886,3.886,0,0,0-.612,1.741A34.336,34.336,0,0,0,21,22Z" transform="translate(30 14)" fill="#137cb6" fill-rule="evenodd"/>
</svg>
