<svg xmlns="http://www.w3.org/2000/svg" width="17.077" height="17.127" viewBox="0 0 17.077 17.127">
  <path id="Home" d="M1.487,13.468a20.89,20.89,0,0,1-.351-6.843A1.258,1.258,0,0,1,1.224,6.5,5.623,5.623,0,0,1,1.688,6c.414-.408.989-.91,1.646-1.454,1.31-1.084,2.9-2.291,4.057-3.153a1.963,1.963,0,0,1,2.345-.005c1.168.862,2.77,2.07,4.084,3.155.659.544,1.232,1.046,1.639,1.453a4.984,4.984,0,0,1,.447.5c.033.044.054.076.068.1a26.373,26.373,0,0,1-.346,6.894,2.537,2.537,0,0,1-.851,1.6,4.065,4.065,0,0,1-2.08.713q-.749.094-1.486.154a32.111,32.111,0,0,1-5.362,0q-.71-.06-1.425-.151a4.013,4.013,0,0,1-2.065-.718A2.665,2.665,0,0,1,1.487,13.468ZM1.123,6.649l0,0ZM15.99,6.62l0,0Z" transform="translate(0.027 0.07)" fill="none" stroke="#646564" stroke-linecap="round" stroke-linejoin="round" stroke-width="2"/>
</svg>
