<svg xmlns="http://www.w3.org/2000/svg" width="41.265" height="48.155" viewBox="0 0 41.265 48.155">
  <g id="location2" transform="translate(1.549 1.5)">
    <path id="Path_1011" data-name="Path 1011" d="M1.271,23.5A27.9,27.9,0,0,0,8.614,37.67,46.066,46.066,0,0,0,18.34,45.6a3.243,3.243,0,0,0,3.487,0,46.066,46.066,0,0,0,9.725-7.932A27.9,27.9,0,0,0,38.895,23.5,21.308,21.308,0,0,0,35.951,8.79C33.1,4.425,28.083,1,20.083,1S7.067,4.425,4.215,8.79A21.308,21.308,0,0,0,1.271,23.5Z" transform="translate(-1 -1)" fill="none" stroke="#ff4241" stroke-linecap="round" stroke-linejoin="round" stroke-width="3"/>
    <circle id="Ellipse_49" data-name="Ellipse 49" cx="5.204" cy="5.204" r="5.204" transform="translate(24.288 23.697) rotate(180)" fill="none" stroke="#ff4241" stroke-width="3"/>
  </g>
</svg>
