<svg xmlns="http://www.w3.org/2000/svg" width="15.065" height="17.422" viewBox="0 0 15.065 17.422">
  <g id="Location" transform="translate(1.017 1)">
    <path id="Path_1011" data-name="Path 1011" d="M1.092,8.681A9.526,9.526,0,0,0,3.6,13.519a15.727,15.727,0,0,0,3.32,2.708,1.107,1.107,0,0,0,1.19,0,15.727,15.727,0,0,0,3.32-2.708,9.526,9.526,0,0,0,2.507-4.839A7.275,7.275,0,0,0,12.932,3.66,6.078,6.078,0,0,0,7.515,1,6.078,6.078,0,0,0,2.1,3.66,7.275,7.275,0,0,0,1.092,8.681Z" transform="translate(-1 -1)" fill="none" stroke="#646564" stroke-linecap="round" stroke-linejoin="round" stroke-width="2"/>
    <circle id="Ellipse_49" data-name="Ellipse 49" cx="1.777" cy="1.777" r="1.777" transform="translate(8.292 8.09) rotate(180)" fill="none" stroke="#646564" stroke-width="2"/>
  </g>
</svg>
