<svg xmlns="http://www.w3.org/2000/svg" width="17.292" height="20.05" viewBox="0 0 17.292 20.05">
  <g id="Location-white" transform="translate(1.02 1)">
    <path id="Path_1011" data-name="Path 1011" d="M1.108,9.99a11.15,11.15,0,0,0,2.935,5.664,18.408,18.408,0,0,0,3.886,3.17,1.3,1.3,0,0,0,1.393,0,18.409,18.409,0,0,0,3.886-3.17A11.15,11.15,0,0,0,16.143,9.99a8.515,8.515,0,0,0-1.177-5.877A7.115,7.115,0,0,0,8.626,1,7.115,7.115,0,0,0,2.285,4.113,8.515,8.515,0,0,0,1.108,9.99Z" transform="translate(-1 -1)" fill="none" stroke="#c6ecff" stroke-linecap="round" stroke-linejoin="round" stroke-width="2"/>
    <circle id="Ellipse_49" data-name="Ellipse 49" cx="2.08" cy="2.08" r="2.08" transform="translate(9.706 9.469) rotate(180)" fill="none" stroke="#c6ecff" stroke-width="2"/>
  </g>
</svg>
