<svg id="Menu-hotel" xmlns="http://www.w3.org/2000/svg" width="24" height="24" viewBox="0 0 24 24">
  <path id="Path_1022" data-name="Path 1022" d="M1,5.5a12.254,12.254,0,0,0,.2,2.553,2.311,2.311,0,0,0,.56,1.188,2.311,2.311,0,0,0,1.188.56A12.254,12.254,0,0,0,5.5,10a12.254,12.254,0,0,0,2.553-.2,2.311,2.311,0,0,0,1.188-.56A2.311,2.311,0,0,0,9.8,8.053,12.254,12.254,0,0,0,10,5.5a12.254,12.254,0,0,0-.2-2.553,2.311,2.311,0,0,0-.56-1.188A2.311,2.311,0,0,0,8.053,1.2,12.254,12.254,0,0,0,5.5,1a12.255,12.255,0,0,0-2.553.2,2.311,2.311,0,0,0-1.188.56A2.311,2.311,0,0,0,1.2,2.947,12.255,12.255,0,0,0,1,5.5Z" fill="none" stroke="#212135" stroke-linecap="round" stroke-linejoin="round" stroke-width="2"/>
  <path id="Path_1023" data-name="Path 1023" d="M1,18.5a12.254,12.254,0,0,0,.2,2.553,2.312,2.312,0,0,0,.56,1.188,2.312,2.312,0,0,0,1.188.56A12.26,12.26,0,0,0,5.5,23a12.26,12.26,0,0,0,2.553-.2,2.312,2.312,0,0,0,1.188-.56,2.312,2.312,0,0,0,.56-1.188A12.254,12.254,0,0,0,10,18.5a12.254,12.254,0,0,0-.2-2.553,2.312,2.312,0,0,0-.56-1.188,2.312,2.312,0,0,0-1.188-.56A12.26,12.26,0,0,0,5.5,14a12.26,12.26,0,0,0-2.553.2,2.312,2.312,0,0,0-1.188.56,2.312,2.312,0,0,0-.56,1.188A12.254,12.254,0,0,0,1,18.5Z" fill="none" stroke="#212135" stroke-linecap="round" stroke-linejoin="round" stroke-width="2"/>
  <path id="Path_1024" data-name="Path 1024" d="M14,5.5a12.26,12.26,0,0,0,.2,2.553,2.312,2.312,0,0,0,.56,1.188,2.312,2.312,0,0,0,1.188.56A12.254,12.254,0,0,0,18.5,10a12.254,12.254,0,0,0,2.553-.2,2.312,2.312,0,0,0,1.188-.56,2.312,2.312,0,0,0,.56-1.188A12.26,12.26,0,0,0,23,5.5a12.26,12.26,0,0,0-.2-2.553,2.312,2.312,0,0,0-.56-1.188,2.312,2.312,0,0,0-1.188-.56A12.254,12.254,0,0,0,18.5,1a12.254,12.254,0,0,0-2.553.2,2.312,2.312,0,0,0-1.188.56,2.312,2.312,0,0,0-.56,1.188A12.26,12.26,0,0,0,14,5.5Z" fill="none" stroke="#212135" stroke-linecap="round" stroke-linejoin="round" stroke-width="2"/>
  <path id="Path_1025" data-name="Path 1025" d="M14,18.5a12.26,12.26,0,0,0,.2,2.553,2.312,2.312,0,0,0,.56,1.188,2.312,2.312,0,0,0,1.188.56A12.26,12.26,0,0,0,18.5,23a12.26,12.26,0,0,0,2.553-.2A1.942,1.942,0,0,0,22.8,21.053,12.26,12.26,0,0,0,23,18.5a12.26,12.26,0,0,0-.2-2.553,2.312,2.312,0,0,0-.56-1.188,2.312,2.312,0,0,0-1.188-.56A12.26,12.26,0,0,0,18.5,14a12.26,12.26,0,0,0-2.553.2,2.312,2.312,0,0,0-1.188.56,2.312,2.312,0,0,0-.56,1.188A12.26,12.26,0,0,0,14,18.5Z" fill="none" stroke="#212135" stroke-linecap="round" stroke-linejoin="round" stroke-width="2"/>
</svg>
