<svg xmlns="http://www.w3.org/2000/svg" width="105" height="105" viewBox="0 0 105 105">
  <g id="Message-info-tour" transform="translate(1.5 1.5)" opacity="0.3">
    <path id="Path_1028" data-name="Path 1028" d="M51,1c11.148,0,19.826.506,26.614,1.812,6.765,1.3,11.313,3.336,14.5,6.143C98.44,14.533,101,24.614,101,44.94c0,13.1-1.176,22.735-4.342,29.014A15.09,15.09,0,0,1,90.792,80.5c-2.447,1.427-5.729,2.317-10.246,2.317-5.823,0-10.194,1.308-13.612,3.623a24.423,24.423,0,0,0-6.845,7.575q-.34.534-.639,1.011a19.548,19.548,0,0,1-3.195,4.293c-1,.9-2.409,1.679-5.254,1.679s-4.25-.777-5.255-1.679a19.574,19.574,0,0,1-3.195-4.293q-.3-.478-.639-1.012a24.425,24.425,0,0,0-6.845-7.575c-3.418-2.315-7.789-3.623-13.612-3.623-4.493,0-7.764-.912-10.211-2.369A15.465,15.465,0,0,1,5.35,73.774C2.173,67.418,1,57.764,1,44.94,1,24.872,3.553,14.766,9.9,9.122c3.195-2.84,7.75-4.912,14.506-6.247C31.189,1.535,39.862,1,51,1Z" fill="none" stroke="#053742" stroke-linecap="round" stroke-linejoin="round" stroke-width="5"/>
    <path id="Path_1029" data-name="Path 1029" d="M7,9H25.182" transform="translate(21.273 28.364)" fill="none" stroke="#053742" stroke-linecap="round" stroke-linejoin="round" stroke-width="5"/>
    <path id="Path_1030" data-name="Path 1030" d="M7,13H52.455" transform="translate(21.273 42.545)" fill="none" stroke="#053742" stroke-linecap="round" stroke-linejoin="round" stroke-width="5"/>
  </g>
</svg>
