<svg xmlns="http://www.w3.org/2000/svg" width="31.567" height="31.18" viewBox="0 0 31.567 31.18">
  <g id="Modem" transform="translate(0.075 1)">
    <path id="Path_1042" data-name="Path 1042" d="M4,5.312a8.032,8.032,0,0,1,1.312-.75A6.137,6.137,0,0,1,7.937,4a6.137,6.137,0,0,1,2.624.562,8.032,8.032,0,0,1,1.312.75" transform="translate(1.249 -0.063)" fill="none" stroke="#137cb6" stroke-linecap="round" stroke-linejoin="round" stroke-width="2"/>
    <path id="Path_1043" data-name="Path 1043" d="M1,3.624a21.411,21.411,0,0,1,2.624-1.5A11.2,11.2,0,0,1,8.873,1a11.2,11.2,0,0,1,5.249,1.125,21.407,21.407,0,0,1,2.624,1.5" transform="translate(0.312 -1)" fill="none" stroke="#137cb6" stroke-linecap="round" stroke-linejoin="round" stroke-width="2"/>
    <path id="Path_1044" data-name="Path 1044" d="M9.185,6A1.312,1.312,0,0,1,10.5,7.312v7.9c1.53-.023,3.271-.023,5.249-.023s3.719,0,5.249.023V12.561a1.312,1.312,0,0,1,2.624,0v2.624c0,.033,0,.067,0,.1,6.3.3,7.877,1.525,7.877,6.461,0,4.163-1.119,5.684-5.249,6.24v.32a1.312,1.312,0,0,1-2.624,0v-.1c-2.074.1-4.661.1-7.873.1s-5.8,0-7.873-.1v.1a1.312,1.312,0,0,1-2.624,0v-.32C1.119,27.43,0,25.909,0,21.746c0-4.937,1.574-6.159,7.877-6.461q0-.049,0-.1V7.312A1.312,1.312,0,0,1,9.185,6Zm-6.2,18.362a6.235,6.235,0,0,1-.358-2.616,6.235,6.235,0,0,1,.358-2.616c.1-.2.251-.42.9-.651a15.3,15.3,0,0,1,4.058-.57c2-.1,4.535-.1,7.8-.1s5.8,0,7.8.1a15.3,15.3,0,0,1,4.058.57c.654.231.8.451.9.651a6.233,6.233,0,0,1,.358,2.616,6.233,6.233,0,0,1-.358,2.616c-.1.2-.25.42-.9.651a15.3,15.3,0,0,1-4.058.57c-2,.1-4.535.1-7.8.1s-5.8,0-7.8-.1a15.3,15.3,0,0,1-4.058-.57C3.233,24.781,3.083,24.562,2.982,24.362Z" transform="translate(0 0.561)" fill="#137cb6" fill-rule="evenodd"/>
    <path id="Path_1045" data-name="Path 1045" d="M6.312,17a1.312,1.312,0,0,0,0,2.624H7.624a1.312,1.312,0,0,0,0-2.624Zm5.249,0a1.312,1.312,0,1,0,0,2.624h10.5a1.312,1.312,0,0,0,0-2.624Z" transform="translate(1.561 3.995)" fill="#137cb6" fill-rule="evenodd"/>
  </g>
</svg>
