<svg xmlns="http://www.w3.org/2000/svg" width="15.437" height="16.078" viewBox="0 0 15.437 16.078">
  <path id="Moon_1" data-name="Moon 1" d="M14.794,10.838l.595.245a.643.643,0,0,0-.883-.82ZM6.442.643l.519.38A.643.643,0,0,0,6.3.015Zm5.39,10.25a6.126,6.126,0,0,1-6.07-6.181H4.475a7.413,7.413,0,0,0,7.356,7.467Zm2.674-.63a5.954,5.954,0,0,1-2.674.63V12.18a7.24,7.24,0,0,0,3.25-.766Zm-.307.33a6.717,6.717,0,0,1-6.2,4.2v1.286a8,8,0,0,0,7.387-5ZM8,14.792A6.777,6.777,0,0,1,1.287,7.955H0a8.063,8.063,0,0,0,8,8.123ZM1.287,7.955A6.812,6.812,0,0,1,6.58,1.271L6.3.015A8.1,8.1,0,0,0,0,7.955ZM5.762,4.712a6.225,6.225,0,0,1,1.2-3.689L5.923.263A7.512,7.512,0,0,0,4.475,4.712Z" transform="translate(0)" fill="#ff4241"/>
</svg>
