<svg id="Moon_2" data-name="Moon 2" xmlns="http://www.w3.org/2000/svg" width="35.292" height="36.759" viewBox="0 0 35.292 36.759">
  <path id="Path_1046" data-name="Path 1046" d="M33.821,24.779l1.36.559a1.471,1.471,0,0,0-2.018-1.874ZM14.728,1.471l1.187.868a1.471,1.471,0,0,0-1.5-2.3ZM27.05,24.905A14.006,14.006,0,0,1,13.172,10.774H10.231A16.947,16.947,0,0,0,27.05,27.846Zm6.113-1.441a13.611,13.611,0,0,1-6.113,1.441v2.941a16.552,16.552,0,0,0,7.43-1.752Zm-.7.756a15.358,15.358,0,0,1-14.168,9.6v2.941A18.3,18.3,0,0,0,35.181,25.338Zm-14.168,9.6A15.493,15.493,0,0,1,2.941,18.187H0A18.434,18.434,0,0,0,18.293,36.759ZM2.941,18.187a15.574,15.574,0,0,1,12.1-15.28L14.413.034A18.515,18.515,0,0,0,0,18.187Zm10.231-7.413a14.232,14.232,0,0,1,2.742-8.435L13.541.6a17.173,17.173,0,0,0-3.31,10.172Z" transform="translate(0 0)" fill="#646564"/>
  <path id="Path_1047" data-name="Path 1047" d="M19.238,2.989a1.029,1.029,0,0,1,1.931,0l1.253,3.387a1.029,1.029,0,0,0,.608.608l3.387,1.253a1.029,1.029,0,0,1,0,1.931L23.03,11.422a1.029,1.029,0,0,0-.608.608l-1.253,3.387a1.029,1.029,0,0,1-1.931,0L17.984,12.03a1.029,1.029,0,0,0-.608-.608l-3.387-1.253a1.029,1.029,0,0,1,0-1.931l3.387-1.253a1.029,1.029,0,0,0,.608-.608Z" transform="translate(6.265 1.09)" fill="none" stroke="#137cb6" stroke-linecap="round" stroke-width="2"/>
</svg>
