<svg id="need" xmlns="http://www.w3.org/2000/svg" width="25" height="25" viewBox="0 0 25 25">
  <path id="Path_747" data-name="Path 747" d="M24.868,13.163a4.4,4.4,0,0,0,.114-.578,5.2,5.2,0,0,0,.017-.66C24.907,2.125,22.583,0,12.5,0S.093,2.125,0,11.925a5.2,5.2,0,0,0,.017.66,4.395,4.395,0,0,0,.114.578C1.986,20.97,8.57,23.882,11.3,24.77a3.249,3.249,0,0,0,2.4,0C16.43,23.882,23.014,20.97,24.868,13.163Zm-1.953-1.218c-.046-4.944-.7-7.051-1.849-8.136C19.885,2.69,17.612,2.092,12.5,2.092s-7.385.6-8.566,1.717C2.79,4.894,2.131,7,2.085,11.945a3.573,3.573,0,0,0,0,.405.77.77,0,0,0,.013.079c.01.049.024.109.057.249,1.595,6.714,7.263,9.283,9.783,10.1.124.04.2.066.27.086s.095.027.113.031h0a1.332,1.332,0,0,0,.347,0h0c.018,0,.051-.012.113-.031s.146-.046.27-.086c2.52-.82,8.189-3.388,9.783-10.1.033-.14.047-.2.057-.249a.743.743,0,0,0,.012-.078A3.533,3.533,0,0,0,22.915,11.945Z" transform="translate(0)" fill="#a9b0a6" fill-rule="evenodd"/>
  <path id="Path_748" data-name="Path 748" d="M13.084,7.071a1.042,1.042,0,1,0-2.084,0v6.276a1.042,1.042,0,1,0,2.084,0Z" transform="translate(0.458 0.251)" fill="#212e47"/>
  <path id="Path_749" data-name="Path 749" d="M12.042,15.062a1.046,1.046,0,1,0,1.042,1.046A1.044,1.044,0,0,0,12.042,15.062Z" transform="translate(0.458 0.628)" fill="#212e47"/>
</svg>
