<svg xmlns="http://www.w3.org/2000/svg" width="52.436" height="49.432" viewBox="0 0 52.436 49.432">
  <g id="Notification_2" data-name="Notification 2" transform="translate(-0.473)">
    <path id="Path_1062" data-name="Path 1062" d="M9,25.606C13.021,28.2,18.947,26.893,20.851,23" transform="translate(8.316 21.455)" fill="none" stroke="#ff4241" stroke-linecap="round" stroke-linejoin="round" stroke-width="2"/>
    <path id="Path_1063" data-name="Path 1063" d="M28.365,16.851A11.411,11.411,0,0,0,16.513,5" transform="translate(15.643 3.901)" fill="none" stroke="#ff4241" stroke-linecap="round" stroke-linejoin="round" stroke-width="2"/>
    <path id="Path_1064" data-name="Path 1064" d="M36.266,20.752C36.266,8.9,28.365,1,16.513,1" transform="translate(15.643)" fill="none" stroke="#ff4241" stroke-linecap="round" stroke-linejoin="round" stroke-width="2"/>
    <path id="Path_1065" data-name="Path 1065" d="M14.625,4.94q-.011-.05-.024-.1a1.975,1.975,0,0,0-3.816,1.022q.013.05.029.1C4.673,8.593.588,17.387,3.683,25.147c1.148,2.321-.049,4.034-1.294,5.817C1.212,32.649-.008,34.4.665,36.779c.9,3.35,3.292,4.655,6.334,4.8,0,0,5.656.587,14.9-1.889S35.74,33.882,35.74,33.882c2.56-1.651,3.957-4.07,3.083-7.328-.646-2.411-2.576-3.315-4.427-4.182-1.961-.919-3.835-1.8-4-4.382C29.194,9.722,21.259,4.149,14.625,4.94ZM7.73,29.355a7.819,7.819,0,0,0-.423-5.787,11.653,11.653,0,0,1,.385-9.025,9.156,9.156,0,0,1,5.487-5.232l1.072-.287a9.156,9.156,0,0,1,7.368,1.788,11.653,11.653,0,0,1,4.846,7.624,7.821,7.821,0,0,0,2.508,5.212,13.438,13.438,0,0,0,3.511,2.193l.067.031c2.215,1.04,2.336,1.262,2.455,1.706a2.231,2.231,0,0,1-.028,1.594A3.553,3.553,0,0,1,33.6,30.562l-.09.058-.074.054-.006,0-.1.067c-.1.067-.271.178-.513.326-.482.294-1.246.733-2.291,1.251a52.254,52.254,0,0,1-9.655,3.558,52.266,52.266,0,0,1-10.14,1.746c-1.164.074-2.045.076-2.61.062-.282-.007-.486-.018-.607-.025L7.4,37.653H7.391L7.3,37.643l-.107-.005a3.613,3.613,0,0,1-1.9-.493,2.235,2.235,0,0,1-.812-1.388l-.007-.025L4.467,35.7c-.107-.378-.154-.592,1.266-2.628l.043-.061h0A13.57,13.57,0,0,0,7.73,29.355Z" transform="translate(0 2.317)" fill="#ff4241" fill-rule="evenodd"/>
  </g>
</svg>
