<svg id="Off" xmlns="http://www.w3.org/2000/svg" width="23.001" height="23.001" viewBox="0 0 23.001 23.001">
  <rect id="Rectangle_168" data-name="Rectangle 168" width="10" height="1" rx="0.5" transform="translate(12.001) rotate(90)" fill="#ef0912"/>
  <path id="Path_545" data-name="Path 545" d="M5.75,2.761a.855.855,0,0,0-1.315-.767C1.585,3.919,0,7.22,0,11.577c0,7.188,4.313,11.5,11.5,11.5S23,18.765,23,11.577c0-4.358-1.585-7.659-4.435-9.583a.855.855,0,0,0-1.315.767v.133a1.033,1.033,0,0,0,.442.829,7.37,7.37,0,0,1,.9.764c1.538,1.538,2.493,3.881,2.493,7.09s-.955,5.552-2.493,7.09-3.881,2.493-7.09,2.493-5.552-.955-7.09-2.493-2.493-3.881-2.493-7.09.955-5.552,2.493-7.09a7.367,7.367,0,0,1,.9-.764,1.033,1.033,0,0,0,.442-.829Z" transform="translate(0 -0.077)" fill="#de6187"/>
</svg>
