<svg xmlns="http://www.w3.org/2000/svg" width="74.95" height="63.197" viewBox="0 0 74.95 63.197">
  <g id="order-cart" transform="translate(0.5)">
    <path id="Path_243" data-name="Path 243" d="M27.78,5.489A3.215,3.215,0,0,0,23.233.942L3.942,20.233A3.215,3.215,0,0,0,8.489,24.78Z" transform="translate(5.038 0)" fill="#212e47"/>
    <path id="Path_244" data-name="Path 244" d="M18.489.942a3.215,3.215,0,0,0-4.547,4.547L33.233,24.78a3.215,3.215,0,0,0,4.547-4.547Z" transform="translate(27.19 0)" fill="#212e47"/>
    <path id="Path_245" data-name="Path 245" d="M7.279,11.139,7.115,9.715H2.108a1.608,1.608,0,0,1,0-3.215H72.842a1.608,1.608,0,1,1,0,3.215H67.835l-.164,1.424c-.353,3.076-.642,5.895-.9,8.48h0l-.1,1.013h0c-.3,2.945-.562,5.59-.855,7.943-.645,5.19-1.443,9.256-3.171,12.28C60.832,44.02,58.1,45.9,54.029,46.965,50.061,48,44.705,48.3,37.475,48.3S24.889,48,20.92,46.965c-4.072-1.065-6.8-2.944-8.611-6.108-1.728-3.024-2.526-7.09-3.171-12.28-.292-2.354-.559-5-.855-7.944h0l-.1-1.012h0C7.921,17.034,7.632,14.215,7.279,11.139Zm4.875-1.424h-1.8l.2,1.788c.319,2.817.584,5.409.824,7.793h0l.1,1h0v.014c.3,2.947.558,5.549.846,7.865.647,5.2,1.4,8.677,2.772,11.081a8.482,8.482,0,0,0,2.516,2.808,12.508,12.508,0,0,0,4.116,1.785c3.525.922,8.5,1.229,15.741,1.229s12.216-.307,15.741-1.229a12.508,12.508,0,0,0,4.116-1.785,8.481,8.481,0,0,0,2.516-2.808c1.374-2.4,2.125-5.876,2.772-11.081.288-2.316.549-4.919.846-7.867V20.3h0l.1-1h0c.24-2.384.506-4.976.824-7.793l.2-1.788H12.154Z" transform="translate(-0.5 14.399)" fill="#a9b0a6" stroke="#a9b0a6" stroke-width="1"/>
    <path id="Path_246" data-name="Path 246" d="M12.215,10A3.215,3.215,0,0,0,9,13.215V26.076a3.215,3.215,0,0,0,6.43,0V13.215A3.215,3.215,0,0,0,12.215,10Z" transform="translate(18.329 22.152)" fill="#212e47"/>
    <path id="Path_247" data-name="Path 247" d="M16.215,10A3.215,3.215,0,0,0,13,13.215V26.076a3.215,3.215,0,1,0,6.43,0V13.215A3.215,3.215,0,0,0,16.215,10Z" transform="translate(27.19 22.152)" fill="#212e47"/>
  </g>
</svg>
