<svg xmlns="http://www.w3.org/2000/svg" width="17.31" height="17.334" viewBox="0 0 17.31 17.334">
  <g id="Pen" transform="translate(-0.047 -0.03)">
    <path id="Path_1089" data-name="Path 1089" d="M7.618,6.328,2.56,1.506l6.194.92a4.039,4.039,0,0,1,3.081,2.331l1.828,4.291-2.2,2.2L9.045,13.622,4.777,11.808A4.036,4.036,0,0,1,2.444,8.73L1.518,2.513l5.1,4.863a.724.724,0,0,0,1-1.048ZM8.63,15.019,4.2,13.138l-.013-.006A5.484,5.484,0,0,1,1.012,8.943L.072,2.634A2.266,2.266,0,0,1,2.652.055L8.967.993a5.487,5.487,0,0,1,4.192,3.176l.006.013,2.023,4.748a.727.727,0,0,1,.029.08l.406.4.034.034a13.786,13.786,0,0,1,1.168,1.233,2.178,2.178,0,0,1,.532,1.357,2.178,2.178,0,0,1-.532,1.357,13.8,13.8,0,0,1-1.168,1.233h0l-.034.034-1.028,1.01-.034.034A13.854,13.854,0,0,1,13.3,16.847a2.235,2.235,0,0,1-1.363.517,2.235,2.235,0,0,1-1.363-.517A13.844,13.844,0,0,1,9.322,15.7l-.034-.034-.637-.625Zm1.583-.475.091.089a13.258,13.258,0,0,0,1.143,1.055.828.828,0,0,0,.495.228.828.828,0,0,0,.495-.228,13.259,13.259,0,0,0,1.143-1.055l1.028-1.01A13.211,13.211,0,0,0,15.681,12.5c.2-.262.227-.386.227-.468s-.024-.206-.227-.468a13.209,13.209,0,0,0-1.073-1.122l-.129-.127-2,1.964Z" fill="#646564" fill-rule="evenodd"/>
    <ellipse id="Ellipse_52" data-name="Ellipse 52" cx="1.53" cy="1.527" rx="1.53" ry="1.527" transform="matrix(1, -0.016, 0.016, 1, 5.36, 5.113)" fill="#646564"/>
  </g>
</svg>
