<svg id="Play" xmlns="http://www.w3.org/2000/svg" width="24" height="24" viewBox="0 0 24 24">
  <path id="Path_595" data-name="Path 595" d="M0,12c0,9.882,2.118,12,12,12s12-2.118,12-12S21.882,0,12,0,0,2.118,0,12Zm2,0a26.906,26.906,0,0,0,.438,5.61,5.218,5.218,0,0,0,1.271,2.681A5.218,5.218,0,0,0,6.39,21.562,26.9,26.9,0,0,0,12,22a26.9,26.9,0,0,0,5.61-.438,5.218,5.218,0,0,0,2.681-1.271,5.218,5.218,0,0,0,1.271-2.681A26.9,26.9,0,0,0,22,12a26.9,26.9,0,0,0-.438-5.61,5.218,5.218,0,0,0-1.271-2.681A5.218,5.218,0,0,0,17.61,2.438,26.906,26.906,0,0,0,12,2a26.905,26.905,0,0,0-5.61.438A5.219,5.219,0,0,0,3.708,3.708,5.219,5.219,0,0,0,2.438,6.39,26.905,26.905,0,0,0,2,12Z" fill="#42b0b9" fill-rule="evenodd"/>
  <path id="Path_596" data-name="Path 596" d="M14.872,15.6a15.173,15.173,0,0,0,1.759-1.167A3.142,3.142,0,0,0,17.894,12a3.142,3.142,0,0,0-1.263-2.432A15.179,15.179,0,0,0,14.872,8.4L13.054,7.306A15.021,15.021,0,0,0,11.2,6.3a3.043,3.043,0,0,0-2.8.1A3.14,3.14,0,0,0,6.981,8.759a16.471,16.471,0,0,0-.087,2.153v2.177a16.469,16.469,0,0,0,.087,2.153A3.14,3.14,0,0,0,8.4,17.606a3.042,3.042,0,0,0,2.8.1,15.011,15.011,0,0,0,1.851-1.007ZM13.74,10.054c1.436.865,2.154,1.3,2.154,1.946s-.718,1.081-2.154,1.946l-1.615.973c-1.436.865-2.154,1.3-2.692.973s-.538-1.189-.538-2.919V11.027c0-1.73,0-2.595.538-2.919s1.256.108,2.692.973Z" fill="#2ce5de" fill-rule="evenodd"/>
</svg>
