<svg id="Sun" xmlns="http://www.w3.org/2000/svg" width="21.159" height="21.159" viewBox="0 0 21.159 21.159">
  <path id="Path_1144" data-name="Path 1144" d="M7,12.3c-.024,2.225.347,3.463,1.064,4.18s1.973,1.1,4.225,1.1,3.492-.382,4.205-1.1,1.084-1.96,1.084-4.19-.37-3.471-1.084-4.19S14.542,7,12.289,7,8.811,7.382,8.1,8.1,7.024,10.063,7,12.3Z" transform="translate(-1.71 -1.71)" fill="none" stroke="#ff4241" stroke-linecap="round" stroke-linejoin="round" stroke-width="2"/>
  <path id="Path_1145" data-name="Path 1145" d="M14.511.756A.756.756,0,0,0,13,.756ZM13,2.267a.756.756,0,0,0,1.511,0ZM13,.756V2.267h1.511V.756Z" transform="translate(-3.176)" fill="#ff4241"/>
  <path id="Path_1146" data-name="Path 1146" d="M14.511,24.756a.756.756,0,0,0-1.511,0ZM13,26.267a.756.756,0,0,0,1.511,0Zm0-1.511v1.511h1.511V24.756Z" transform="translate(-3.176 -5.864)" fill="#ff4241"/>
  <path id="Path_1147" data-name="Path 1147" d="M26.267,14.511a.756.756,0,0,0,0-1.511ZM24.756,13a.756.756,0,0,0,0,1.511Zm1.511,0H24.756v1.511h1.511Z" transform="translate(-5.864 -3.176)" fill="#ff4241"/>
  <path id="Path_1148" data-name="Path 1148" d="M2.267,14.511a.756.756,0,0,0,0-1.511ZM.756,13a.756.756,0,0,0,0,1.511Zm1.511,0H.756v1.511H2.267Z" transform="translate(0 -3.176)" fill="#ff4241"/>
  <path id="Path_1149" data-name="Path 1149" d="M4.29,3.221A.756.756,0,0,0,3.221,4.29Zm0,2.137A.756.756,0,0,0,5.359,4.29ZM3.221,4.29,4.29,5.359,5.359,4.29,4.29,3.221Z" transform="translate(-0.733 -0.733)" fill="#ff4241"/>
  <path id="Path_1150" data-name="Path 1150" d="M4.29,24.359A.756.756,0,1,1,3.221,23.29Zm0-2.137A.756.756,0,0,1,5.359,23.29ZM3.221,23.29,4.29,22.221,5.359,23.29,4.29,24.359Z" transform="translate(-0.733 -5.375)" fill="#ff4241"/>
  <path id="Path_1151" data-name="Path 1151" d="M23.29,3.221A.756.756,0,1,1,24.359,4.29Zm0,2.137A.756.756,0,0,1,22.221,4.29ZM24.359,4.29,23.29,5.359,22.221,4.29,23.29,3.221Z" transform="translate(-5.375 -0.733)" fill="#ff4241"/>
  <path id="Path_1152" data-name="Path 1152" d="M23.29,24.359a.756.756,0,1,0,1.069-1.069Zm0-2.137a.756.756,0,0,0-1.069,1.069Zm1.069,1.069L23.29,22.221,22.221,23.29l1.069,1.069Z" transform="translate(-5.375 -5.375)" fill="#ff4241"/>
</svg>
