<svg xmlns="http://www.w3.org/2000/svg" width="49.813" height="49.816" viewBox="0 0 49.813 49.816">
  <g id="Tag" transform="translate(0.5 0.502)">
    <path id="Path_1163" data-name="Path 1163" d="M3.461,35.672c-1.855-1.807-2.6-4.4-2.439-7.66A33.016,33.016,0,0,1,3.793,17.4,68.9,68.9,0,0,1,8.848,7.728a38.308,38.308,0,0,1,3.359-4.746,3.333,3.333,0,0,1,.413-.156,14.6,14.6,0,0,1,1.788-.412c1.529-.273,3.535-.5,5.777-.686,4.474-.374,9.683-.579,13.473-.724a5.88,5.88,0,0,1,5.165,3.006c1.837,3.337,4.247,7.919,6.128,11.955.942,2.023,1.732,3.867,2.251,5.331a15.157,15.157,0,0,1,.532,1.775,3.438,3.438,0,0,1,.079.508,15.035,15.035,0,0,1-.657,1.723c-.418.967-1,2.2-1.734,3.591a68.123,68.123,0,0,1-5.862,9.295A32.517,32.517,0,0,1,31.734,45.9C29,47.654,26.4,48.252,23.942,47.482a77.561,77.561,0,0,1-10.61-5.336c-2.2-1.262-4.358-2.569-6.143-3.736A29.03,29.03,0,0,1,3.461,35.672Z" transform="translate(0 0)" fill="none" stroke="#ff4241" stroke-linecap="round" stroke-linejoin="round" stroke-width="3"/>
    <circle id="Ellipse_63" data-name="Ellipse 63" cx="4.318" cy="4.318" r="4.318" transform="translate(27.381 9.164) rotate(30)" fill="none" stroke="#ff4241" stroke-width="3"/>
    <rect id="Rectangle_188" data-name="Rectangle 188" width="21.491" height="4.298" rx="1.01" transform="translate(9.988 26.439) rotate(30)" fill="#ff4241"/>
  </g>
</svg>
