<svg xmlns="http://www.w3.org/2000/svg" width="18.951" height="18.834" viewBox="0 0 18.951 18.834">
  <g id="Ticket" transform="translate(-0.272 -0.25)">
    <path id="Path_1168" data-name="Path 1168" d="M2.211,7.947a3.525,3.525,0,0,1-.573-.018l-.165.77.165-.77a.814.814,0,0,1-.61-.629,3.131,3.131,0,0,1,0-.537,8.509,8.509,0,0,1,.377-2.7A4.129,4.129,0,0,1,3.359,1.687C4.154,1.242,5.4,1,7.92,1h3.5c2.525,0,3.767.242,4.561.687a4.129,4.129,0,0,1,1.954,2.375,8.505,8.505,0,0,1,.377,2.7,3.133,3.133,0,0,1,0,.537l.775.142L18.313,7.3a.814.814,0,0,1-.61.629,3.525,3.525,0,0,1-.573.018,1.839,1.839,0,0,0-1.723,1.935,1.839,1.839,0,0,0,1.723,1.935,3.429,3.429,0,0,1,.561.017.826.826,0,0,1,.613.642,2.885,2.885,0,0,1-.006.51,7.5,7.5,0,0,1-.361,2.285,4.129,4.129,0,0,1-1.954,2.375c-.795.445-2.037.687-4.561.687H7.92c-2.525,0-3.767-.242-4.561-.687A4.129,4.129,0,0,1,1.4,15.271a7.5,7.5,0,0,1-.361-2.285,2.875,2.875,0,0,1-.006-.51.826.826,0,0,1,.613-.642,3.428,3.428,0,0,1,.561-.017A1.839,1.839,0,0,0,3.934,9.882,1.839,1.839,0,0,0,2.211,7.947Z" fill="none" stroke="#646564" stroke-width="1.5"/>
    <path id="Path_1169" data-name="Path 1169" d="M14.788,4a.788.788,0,0,1,.788.788V6.364a.788.788,0,1,1-1.576,0V4.788A.788.788,0,0,1,14.788,4Zm0,4.727a.788.788,0,0,1,.788.788v1.576a.788.788,0,1,1-1.576,0V9.515A.788.788,0,0,1,14.788,8.727Zm.788,5.515a.788.788,0,1,0-1.576,0v1.576a.788.788,0,0,0,1.576,0Z" transform="translate(-2.753 -0.636)" fill="#646564" fill-rule="evenodd"/>
  </g>
</svg>
