<svg xmlns="http://www.w3.org/2000/svg" width="19.643" height="19.68" viewBox="0 0 19.643 19.68">
  <g id="Ticket-index" transform="translate(-0.022)">
    <path id="Path_1168" data-name="Path 1168" d="M2.235,8.086a3.6,3.6,0,0,1-.584-.018l-.169.786.169-.786a.83.83,0,0,1-.622-.641,3.194,3.194,0,0,1,0-.548,8.679,8.679,0,0,1,.385-2.755A4.211,4.211,0,0,1,3.406,1.7C4.216,1.247,5.483,1,8.058,1h3.571c2.575,0,3.842.247,4.652.7a4.211,4.211,0,0,1,1.993,2.423,8.675,8.675,0,0,1,.385,2.755,3.2,3.2,0,0,1,0,.548l.791.144-.791-.144a.83.83,0,0,1-.622.641,3.6,3.6,0,0,1-.584.018A1.876,1.876,0,0,0,15.7,10.059a1.876,1.876,0,0,0,1.757,1.974,3.5,3.5,0,0,1,.573.018.843.843,0,0,1,.625.655,2.943,2.943,0,0,1-.006.52,7.652,7.652,0,0,1-.369,2.331,4.212,4.212,0,0,1-1.993,2.423c-.811.454-2.077.7-4.652.7H8.058c-2.575,0-3.842-.247-4.652-.7a4.212,4.212,0,0,1-1.993-2.423,7.652,7.652,0,0,1-.369-2.331,2.933,2.933,0,0,1-.006-.52.842.842,0,0,1,.625-.655,3.5,3.5,0,0,1,.573-.018,1.876,1.876,0,0,0,1.757-1.974A1.876,1.876,0,0,0,2.235,8.086Z" fill="none" stroke="#ff4241" stroke-width="2"/>
    <path id="Path_1169" data-name="Path 1169" d="M14.8,4a.8.8,0,0,1,.8.8V6.411a.8.8,0,0,1-1.607,0V4.8A.8.8,0,0,1,14.8,4Zm0,4.822a.8.8,0,0,1,.8.8v1.607a.8.8,0,0,1-1.607,0V9.625A.8.8,0,0,1,14.8,8.822Zm.8,5.625a.8.8,0,1,0-1.607,0v1.607a.8.8,0,0,0,1.607,0Z" transform="translate(-2.549 -0.589)" fill="#ff4241" fill-rule="evenodd"/>
  </g>
</svg>
