<svg id="Unlock" xmlns="http://www.w3.org/2000/svg" width="65.751" height="65.751" viewBox="0 0 65.751 65.751">
  <path id="Path_711" data-name="Path 711" d="M22.181,16.763a15.123,15.123,0,0,1,3.174-7.734A10.1,10.1,0,0,1,31.793,5.61a15.726,15.726,0,0,1,7.528.905A11.558,11.558,0,0,1,44.394,9.87a2.74,2.74,0,0,0,4.36-3.319,16.907,16.907,0,0,0-7.525-5.171A21.2,21.2,0,0,0,31.023.186a15.578,15.578,0,0,0-9.828,5.278c-2.454,2.862-4.075,6.81-4.618,11.929C3.307,19.529,0,25.766,0,41.094,0,61.4,5.8,65.751,32.875,65.751S65.751,61.4,65.751,41.094s-5.8-24.657-32.875-24.657C28.859,16.438,25.311,16.534,22.181,16.763ZM5.479,41.094c0,10.106,1.579,13.673,4.094,15.559,1.438,1.079,3.737,2.044,7.645,2.7a99.379,99.379,0,0,0,15.657.923,99.377,99.377,0,0,0,15.657-.923c3.908-.651,6.207-1.617,7.645-2.7,2.514-1.886,4.094-5.453,4.094-15.559s-1.579-13.673-4.094-15.559c-1.438-1.078-3.738-2.044-7.645-2.7a99.38,99.38,0,0,0-15.657-.923,99.382,99.382,0,0,0-15.657.923c-3.908.651-6.207,1.617-7.645,2.7C7.058,27.421,5.479,30.989,5.479,41.094Z" transform="translate(0 0)" fill="#137cb6" fill-rule="evenodd"/>
  <path id="Path_712" data-name="Path 712" d="M9,20.219A8.219,8.219,0,1,0,17.219,12,8.219,8.219,0,0,0,9,20.219Zm5.479,0a2.74,2.74,0,1,0,2.74-2.74A2.74,2.74,0,0,0,14.479,20.219Z" transform="translate(15.657 20.875)" fill="#c6ecff" fill-rule="evenodd"/>
</svg>
