<svg xmlns="http://www.w3.org/2000/svg" width="20.728" height="23.104" viewBox="0 0 20.728 23.104">
  <g id="User" transform="translate(1 0.993)">
    <path id="Path_1192" data-name="Path 1192" d="M1,18.746a4.474,4.474,0,0,0,.321,1.947,2.067,2.067,0,0,0,1.1.988,9.375,9.375,0,0,0,2.85.627c1.316.133,2.983.185,5.094.185s3.778-.052,5.094-.185a9.374,9.374,0,0,0,2.85-.627,2.067,2.067,0,0,0,1.1-.988,4.473,4.473,0,0,0,.321-1.947,4.473,4.473,0,0,0-.321-1.947,2.067,2.067,0,0,0-1.1-.988,9.374,9.374,0,0,0-2.85-.627C14.142,15.052,12.475,15,10.364,15s-3.778.052-5.094.185a9.375,9.375,0,0,0-2.85.627,2.067,2.067,0,0,0-1.1.988A4.474,4.474,0,0,0,1,18.746Z" transform="translate(-1 -1.381)" fill="none" stroke="#fff" stroke-linecap="round" stroke-linejoin="round" stroke-width="2"/>
    <ellipse id="Ellipse_69" data-name="Ellipse 69" cx="4.603" cy="5.261" rx="4.603" ry="5.261" transform="translate(14.026 10.528) rotate(180)" fill="none" stroke="#fff" stroke-width="2"/>
  </g>
</svg>
