<svg id="User" xmlns="http://www.w3.org/2000/svg" width="57.345" height="62.559" viewBox="0 0 57.345 62.559">
  <path id="Path_739" data-name="Path 739" d="M0,27.033C0,37.766,5.061,40.066,28.673,40.066s28.673-2.3,28.673-13.033S52.285,14,28.673,14,0,16.3,0,27.033Zm5.213,0a10.087,10.087,0,0,0,.63,4.274,3.184,3.184,0,0,0,1.8,1.521,23.723,23.723,0,0,0,7.116,1.524c3.531.357,8.066.5,13.917.5s10.387-.144,13.917-.5a23.721,23.721,0,0,0,7.116-1.524,3.186,3.186,0,0,0,1.8-1.521,10.089,10.089,0,0,0,.63-4.274,10.089,10.089,0,0,0-.63-4.274,3.186,3.186,0,0,0-1.8-1.521,23.721,23.721,0,0,0-7.116-1.524c-3.531-.357-8.066-.5-13.917-.5s-10.387.144-13.917.5a23.723,23.723,0,0,0-7.116,1.524,3.184,3.184,0,0,0-1.8,1.521A10.087,10.087,0,0,0,5.213,27.033Z" transform="translate(0 22.493)" fill="#a9b0a6" fill-rule="evenodd"/>
  <path id="Path_740" data-name="Path 740" d="M5,15.64A15.64,15.64,0,1,0,20.64,0,15.64,15.64,0,0,0,5,15.64Zm5.213,0A10.426,10.426,0,1,0,20.64,5.213,10.426,10.426,0,0,0,10.213,15.64Z" transform="translate(8.033)" fill="#212e47" fill-rule="evenodd"/>
</svg>
