<svg id="User_Accepted" data-name="User Accepted" xmlns="http://www.w3.org/2000/svg" width="20.93" height="19.334" viewBox="0 0 20.93 19.334">
  <path id="Path_1184" data-name="Path 1184" d="M1,18.152a3.764,3.764,0,0,0,.27,1.638,1.739,1.739,0,0,0,.925.831,7.888,7.888,0,0,0,2.4.527c1.107.112,2.51.155,4.286.155s3.179-.043,4.286-.155a7.888,7.888,0,0,0,2.4-.527,1.739,1.739,0,0,0,.925-.831,3.763,3.763,0,0,0,.27-1.638,3.763,3.763,0,0,0-.27-1.638,1.739,1.739,0,0,0-.925-.831,7.888,7.888,0,0,0-2.4-.527C12.058,15.043,10.656,15,8.879,15s-3.179.043-4.286.155a7.888,7.888,0,0,0-2.4.527,1.739,1.739,0,0,0-.925.831A3.764,3.764,0,0,0,1,18.152Z" transform="translate(0 -2.969)" fill="none" stroke="#646564" stroke-linecap="round" stroke-linejoin="round" stroke-width="2"/>
  <circle id="Ellipse_65" data-name="Ellipse 65" cx="3.94" cy="3.94" r="3.94" transform="translate(12.819 8.879) rotate(180)" fill="none" stroke="#646564" stroke-width="2"/>
  <path id="Path_1185" data-name="Path 1185" d="M19,9.97l1.182,1.182L23.333,8" transform="translate(-3.818 -1.485)" fill="none" stroke="#646564" stroke-linecap="round" stroke-linejoin="round" stroke-width="2"/>
</svg>
