<svg xmlns="http://www.w3.org/2000/svg" width="105" height="105" viewBox="0 0 105 105">
  <g id="Verified" transform="translate(1.5 1.5)" opacity="0.3">
    <path id="Path_1193" data-name="Path 1193" d="M40.818,10,18.091,32.727,9,23.636" transform="translate(28.364 31.909)" fill="none" stroke="#137cb6" stroke-linecap="round" stroke-linejoin="round" stroke-width="5"/>
    <path id="Path_1194" data-name="Path 1194" d="M42.777,5.085a10.32,10.32,0,0,1,16.446,0l5.158,6.8A5.16,5.16,0,0,0,69.2,13.881l8.457-1.163a10.32,10.32,0,0,1,11.63,11.63L88.119,32.8a5.161,5.161,0,0,0,1.994,4.815l6.8,5.158a10.32,10.32,0,0,1,0,16.446l-6.8,5.158A5.161,5.161,0,0,0,88.119,69.2l1.163,8.457a10.32,10.32,0,0,1-11.63,11.63L69.2,88.119a5.161,5.161,0,0,0-4.815,1.994l-5.158,6.8a10.32,10.32,0,0,1-16.446,0l-5.158-6.8A5.161,5.161,0,0,0,32.8,88.119l-8.457,1.163a10.32,10.32,0,0,1-11.63-11.63L13.881,69.2a5.16,5.16,0,0,0-1.994-4.815l-6.8-5.158a10.32,10.32,0,0,1,0-16.446l6.8-5.158A5.16,5.16,0,0,0,13.881,32.8l-1.163-8.457a10.32,10.32,0,0,1,11.63-11.63L32.8,13.881a5.16,5.16,0,0,0,4.815-1.994Z" transform="translate(0 0)" fill="none" stroke="#137cb6" stroke-width="5"/>
  </g>
</svg>
