<svg id="view-web" xmlns="http://www.w3.org/2000/svg" width="23.001" height="23.001" viewBox="0 0 23.001 23.001">
  <path id="Path_792" data-name="Path 792" d="M0,11.5C0,20.971,2.03,23,11.5,23S23,20.971,23,11.5,20.971,0,11.5,0,0,2.03,0,11.5Zm1.917,0a25.786,25.786,0,0,0,.419,5.377,5,5,0,0,0,1.218,2.57,5,5,0,0,0,2.57,1.218,25.783,25.783,0,0,0,5.377.419,25.784,25.784,0,0,0,5.377-.419,5,5,0,0,0,2.57-1.218,5,5,0,0,0,1.218-2.57,25.784,25.784,0,0,0,.419-5.377,25.783,25.783,0,0,0-.419-5.377,5,5,0,0,0-1.218-2.57,5,5,0,0,0-2.57-1.218A25.786,25.786,0,0,0,11.5,1.917a25.785,25.785,0,0,0-5.377.419,5,5,0,0,0-2.57,1.218,5,5,0,0,0-1.218,2.57A25.785,25.785,0,0,0,1.917,11.5Z" fill="#a9b0a6" fill-rule="evenodd"/>
  <path id="Path_793" data-name="Path 793" d="M5,6.438A1.438,1.438,0,1,1,6.438,7.875,1.438,1.438,0,0,1,5,6.438Z" transform="translate(-0.208 -0.208)" fill="#212e47"/>
  <path id="Path_794" data-name="Path 794" d="M10.438,5a1.438,1.438,0,1,0,1.438,1.438A1.438,1.438,0,0,0,10.438,5Z" transform="translate(-0.375 -0.208)" fill="#212e47"/>
  <path id="Path_795" data-name="Path 795" d="M9,10.438a1.438,1.438,0,1,1,1.438,1.438A1.438,1.438,0,0,1,9,10.438Z" transform="translate(-0.375 -0.375)" fill="#212e47"/>
  <path id="Path_796" data-name="Path 796" d="M6.438,9a1.438,1.438,0,1,0,1.438,1.438A1.438,1.438,0,0,0,6.438,9Z" transform="translate(-0.208 -0.375)" fill="#212e47"/>
</svg>
