<svg id="Watch-blog" xmlns="http://www.w3.org/2000/svg" width="17.682" height="22.986" viewBox="0 0 17.682 22.986">
  <path id="Path_1214" data-name="Path 1214" d="M4.99,2.78a1.9,1.9,0,0,0-.527,1.063,23.918,23.918,0,0,1,4.377-.307,23.917,23.917,0,0,1,4.377.307,1.9,1.9,0,0,0-.527-1.063C12.21,2.3,11.162,1.768,8.841,1.768S5.472,2.3,4.99,2.78ZM3.74,1.53A3.934,3.934,0,0,0,2.652,4.416C.574,5.437,0,7.518,0,11.493s.574,6.056,2.652,7.077A3.934,3.934,0,0,0,3.74,21.457c.955.955,2.559,1.53,5.1,1.53s4.146-.575,5.1-1.53a3.934,3.934,0,0,0,1.088-2.886c2.078-1.022,2.652-3.1,2.652-7.077s-.574-6.056-2.652-7.077A3.934,3.934,0,0,0,13.942,1.53C12.987.575,11.382,0,8.841,0S4.7.575,3.74,1.53Zm9.478,17.613a23.923,23.923,0,0,1-4.377.307,23.924,23.924,0,0,1-4.377-.307,1.9,1.9,0,0,0,.527,1.063c.482.482,1.529,1.012,3.851,1.012s3.369-.53,3.851-1.012A1.9,1.9,0,0,0,13.218,19.143ZM2.873,16.614c-.657-.591-1.1-1.8-1.1-5.121s.448-4.53,1.1-5.121a3.813,3.813,0,0,1,1.862-.78A21.847,21.847,0,0,1,8.841,5.3a21.848,21.848,0,0,1,4.106.287,3.813,3.813,0,0,1,1.862.78c.657.592,1.1,1.8,1.1,5.121s-.448,4.53-1.1,5.121a3.812,3.812,0,0,1-1.862.78,21.845,21.845,0,0,1-4.106.288,21.845,21.845,0,0,1-4.106-.288A3.812,3.812,0,0,1,2.873,16.614Z" fill="#137cb6" fill-rule="evenodd"/>
  <path id="Path_1215" data-name="Path 1215" d="M10,9v2.652c0,.884,0,.884.884.884H14.42" transform="translate(-1.159 -1.043)" fill="none" stroke="#c6ecff" stroke-linecap="round" stroke-linejoin="round" stroke-width="2"/>
</svg>
