<svg id="Watch" xmlns="http://www.w3.org/2000/svg" width="20" height="26" viewBox="0 0 20 26">
  <path id="Path_1214" data-name="Path 1214" d="M5.645,3.145a2.144,2.144,0,0,0-.6,1.2A27.053,27.053,0,0,1,10,4a27.052,27.052,0,0,1,4.951.347,2.144,2.144,0,0,0-.6-1.2C13.811,2.6,12.625,2,10,2S6.189,2.6,5.645,3.145ZM4.23,1.73A4.449,4.449,0,0,0,3,4.995C.65,6.15,0,8.5,0,13s.65,6.85,3,8.005A4.449,4.449,0,0,0,4.23,24.27C5.311,25.35,7.125,26,10,26s4.689-.65,5.77-1.73A4.449,4.449,0,0,0,17,21.005C19.35,19.85,20,17.5,20,13s-.65-6.85-3-8.005A4.449,4.449,0,0,0,15.77,1.73C14.689.65,12.875,0,10,0S5.311.65,4.23,1.73ZM14.951,21.653A27.059,27.059,0,0,1,10,22a27.06,27.06,0,0,1-4.951-.347,2.144,2.144,0,0,0,.6,1.2C6.189,23.4,7.375,24,10,24s3.811-.6,4.355-1.145A2.144,2.144,0,0,0,14.951,21.653Zm-11.7-2.86C2.506,18.124,2,16.755,2,13s.506-5.124,1.25-5.793a4.313,4.313,0,0,1,2.106-.882A24.712,24.712,0,0,1,10,6a24.712,24.712,0,0,1,4.644.325,4.313,4.313,0,0,1,2.106.882C17.494,7.876,18,9.245,18,13s-.506,5.124-1.25,5.793a4.312,4.312,0,0,1-2.106.882A24.709,24.709,0,0,1,10,20a24.709,24.709,0,0,1-4.644-.325A4.312,4.312,0,0,1,3.25,18.793Z" fill="#c6ecff" fill-rule="evenodd"/>
  <path id="Path_1215" data-name="Path 1215" d="M10,9v3c0,1,0,1,1,1h4" fill="none" stroke="#c6ecff" stroke-linecap="round" stroke-linejoin="round" stroke-width="2"/>
</svg>
